<svg xmlns="http://www.w3.org/2000/svg"  viewBox="0 0 64 64" width="48px" height="48px"><linearGradient id="OSfw1wIPvnp0h4QS8bHB5a" x1="32" x2="32" y1="56.917" y2="11.324" gradientTransform="matrix(1 0 0 -1 0 66)" gradientUnits="userSpaceOnUse"><stop offset="0" stop-color="#1a6dff"/><stop offset="1" stop-color="#c822ff"/></linearGradient><path fill="url(#OSfw1wIPvnp0h4QS8bHB5a)" d="M50,55H14c-2.757,0-5-2.243-5-5V14c0-2.757,2.243-5,5-5h36c2.757,0,5,2.243,5,5v36	C55,52.757,52.757,55,50,55z M14,11c-1.654,0-3,1.346-3,3v36c0,1.654,1.346,3,3,3h36c1.654,0,3-1.346,3-3V14c0-1.654-1.346-3-3-3H14	z"/><linearGradient id="OSfw1wIPvnp0h4QS8bHB5b" x1="31.861" x2="31.861" y1="22.75" y2="37.958" gradientUnits="userSpaceOnUse"><stop offset="0" stop-color="#6dc7ff"/><stop offset="1" stop-color="#e6abff"/></linearGradient><path fill="url(#OSfw1wIPvnp0h4QS8bHB5b)" d="M21.149,23.995c0.589-0.679,1.531-1.131,2.355-1.245c0.118,0.905-0.235,1.809-0.706,2.375	c-0.589,0.679-1.414,1.131-2.355,1.131C20.206,25.465,20.559,24.673,21.149,23.995z M26.211,35.724	c-0.706,0.935-1.648,2.221-2.708,2.221s-1.295-0.701-2.59-0.584c-1.413,0-1.648,0.701-2.708,0.584c-1.177,0-2.001-1.052-2.59-2.104	c-1.766-2.688-2.001-5.961-0.824-7.714c0.824-1.169,2.001-1.87,3.179-1.87c1.178,0,2.001,0.701,2.943,0.701s1.531-0.701,2.943-0.701	c1.06,0,2.119,0.584,2.943,1.52c-2.59,1.403-2.119,5.026,0.471,6.078C26.8,34.672,26.565,35.023,26.211,35.724z M34.23,22.75v3.507	h3.039v1.607H34.23v6.107c0,1.403,0.351,2.221,1.636,2.221c0.584,0,0.935,0,1.169-0.117l0.117,1.636	c-0.351,0.117-1.052,0.234-1.87,0.234c-0.935,0-1.753-0.351-2.338-0.935c-0.584-0.701-0.818-1.636-0.818-3.039v-6.107h-1.753v-1.607	h1.753v-2.922L34.23,22.75z M40.916,26.257l2.332,6.546c0.349,1.052,0.699,1.987,0.933,3.039h0.117	c0.233-0.935,0.583-1.87,0.933-3.039l2.215-6.546h2.214l-4.547,11.689h-1.981l-4.43-11.689H40.916z"/></svg>